<?xml version="1.0" encoding="UTF-8" standalone="no"?>
<!-- Created with Inkscape (http://www.inkscape.org/) -->

<svg
   version="1.1"
   id="svg1"
   width="64"
   height="64"
   viewBox="3 0 64.000001 63.999999"
   sodipodi:docname="winkchay.svg"
   inkscape:version="1.3.2 (091e20e, 2023-11-25, custom)"
   xmlns:inkscape="http://www.inkscape.org/namespaces/inkscape"
   xmlns:sodipodi="http://sodipodi.sourceforge.net/DTD/sodipodi-0.dtd"
   xmlns="http://www.w3.org/2000/svg"
   xmlns:svg="http://www.w3.org/2000/svg">
  <sodipodi:namedview
     id="namedview1"
     pagecolor="#ffffff"
     bordercolor="#000000"
     borderopacity="0.25"
     inkscape:showpageshadow="false"
     inkscape:pageopacity="0.0"
     inkscape:pagecheckerboard="true"
     inkscape:deskcolor="#d1d1d1"
     showgrid="false"
     showborder="false"
     borderlayer="false"
     inkscape:zoom="4.3724035"
     inkscape:cx="63.466237"
     inkscape:cy="51.573465"
     inkscape:window-width="1920"
     inkscape:window-height="986"
     inkscape:window-x="-11"
     inkscape:window-y="-11"
     inkscape:window-maximized="1"
     inkscape:current-layer="svg1" />
  <defs
     id="defs1" />
  <g
     id="g1"
     transform="matrix(0.12428907,0,0,0.12428907,57.910158,-70.332596)">
    <path
       style="fill:#0000ca;fill-opacity:1"
       d="m -293.03113,961.72985 c -99.2051,-10.31655 -156.56067,-116.64499 -109.96322,-203.85496 48.41085,-90.60384 175.31332,-99.31675 235.5164,-16.17014 3.68236,5.08571 3.62553,4.77667 1.14752,6.24046 -1.96598,1.16133 -1.96598,1.16133 -4.7881,-2.68959 -74.34898,-101.45283 -232.94803,-56.62698 -242.69213,68.5936 -10.25283,131.7582 164.40849,196.21558 241.34165,89.06524 4.48312,-6.24396 4.27632,-6.15759 8.0608,-3.3664 0.47081,0.34724 -5.15824,8.08381 -10.39172,14.28241 -28.28054,33.49583 -74.94433,52.40088 -118.2312,47.89938 z M 3.9827559,890.81251 c -4.99268,-4.99268 -2.05891,-15.35062 6.3194601,-22.31137 3.164936,-2.62944 3.386616,-2.73043 1.620059,-0.73803 -6.8919691,7.77307 -9.4621191,21.30825 -4.0461491,21.30825 3.7963491,0 6.8009921,-6.04381 9.0632161,-18.23058 1.218456,-6.56391 1.218456,-6.56391 -0.539946,-6.22777 -1.862564,0.35605 -1.438679,-0.15265 2.5988,-3.11879 0.821092,-0.60322 4.692947,-17.20644 4.645992,-19.92286 -0.01955,-1.13075 -1.434633,-0.26083 -7.230106,4.4447 -11.9491161,9.70186 -21.7722861,7.84869 -22.6490861,-4.27282 -0.29025,-4.0127 -0.29025,-4.0127 -2.104,-1.15271 -8.2564199,13.01902 -20.4021849,15.50431 -24.7283649,5.05998 -1.14594,-2.76654 -3.77777,-2.587 -5.96375,0.40682 -6.43853,8.81794 -22.07642,7.81974 -26.00298,-1.65983 -1.03108,-2.48924 -0.42071,-2.75821 -5.76139,2.53877 -16.93467,16.7961 -28.83134,-2.14419 -17.85197,-28.42153 2.21479,-5.30073 0.68356,-6.66286 -4.71699,-4.19604 -4.37828,1.99988 -7.681251,6.29398 -11.603971,15.086 -7.97003,17.86326 -8.90903,19.37757 -13.45334,21.6959 -8.04803,4.1058 -9.0473,0.24886 -5.36193,-20.6959 10.31605,-58.62839 21.50498,-81.94122 36.350431,-75.73839 11.35863,4.74594 8.45801,17.14501 -11.2458,48.07172 -17.553271,27.55126 -20.031951,38.03124 -3.915521,16.55505 16.782711,-22.36406 28.609611,-12.31968 21.296021,18.08635 -2.90884,12.09342 -2.92506,11.02527 0.16741,11.02527 5.9331,0 13.27084,-8.69889 14.33995,-17 2.26509,-17.58729 24.47274,-30.55001 35.18506,-20.53771 1.75832,1.64342 1.75832,1.64342 4.8844,-0.74277 7.886005,-6.01952 9.103035,-3.21075 5.32109,12.28048 -3.57561,14.64603 -4.02223,25.71168 -1.01346,25.10993 3.644405,-0.72888 6.737125,-2.53393 8.601455,-5.02019 0.97984,-1.3067 3.03019,-3.67459 4.5563199,-5.26196 2.28625,-2.378 2.8527,-3.49721 3.21734,-6.35696 1.98945,-15.60274 6.81524998,-25.10928 12.29483,-24.22007 4.4357001,0.71982 4.5365001,1.32171 1.82103,10.8744 -7.60494002,26.75328 -6.19787,35.54718 4.6687791,29.1789 4.512669,-2.6446 6.92793,-7.03081 13.250898,-24.06419 7.400322,-19.93565 19.315097,-25.15182 12.616306,-5.5233 -6.974157,20.43539 -11.747816,38.61102 -10.143971,38.62299 1.323286,0.01 14.593832,-14.05118 17.166667,-18.18927 2.505788,-4.03025 5.992855,-5.65936 4.959385,-2.31695 -1.758804,5.68825 -5.606141,10.16227 -16.203796,18.84318 -7.937348,6.50176 -7.937348,6.50176 -8.703206,12.4736 -2.132039,16.62475 -14.979642,30.98324 -21.7051721,24.2577 z M -45.980869,846.6695 c 8.07649,-3.83254 16.50237,-24.26721 12.84086,-31.14196 -2.71234,-5.0926 -9.75001,-4.17055 -13.82954,1.81189 -3.89753,5.71554 -9.42192,23.19009 -8.10765,25.64583 2.12889,3.97786 5.55408,5.36515 9.09633,3.68424 z m -56.385941,-43.26069 c 8.961961,-15.66387 17.221911,-39.95336 14.552811,-42.79448 -6.12303,-6.51768 -13.230481,6.7586 -18.202651,34.00141 -2.85817,15.66008 -1.77378,18.27257 3.64984,8.79307 z m -266.92129,47.85734 c -0.76892,-2.51922 -13.74303,-50.2763 -13.74303,-50.58743 0,-0.18037 2.45387,-0.24081 5.45305,-0.13432 5.45306,0.19363 5.45306,0.19363 9.51969,17.32443 2.23665,9.42193 4.23234,17.2965 4.43487,17.49903 0.20253,0.20253 2.75492,-7.50633 5.67199,-17.1308 7.80158,-25.74024 11.60096,-25.87738 19.21094,-0.69344 2.85766,9.45693 5.40454,17.58064 5.65973,18.05269 0.2552,0.47206 1.45275,-3.42794 2.66124,-8.66666 6.77347,-29.36274 5.52473,-26.52495 11.67204,-26.52495 8.02801,0 -5.24741,51.52592 -13.36157,51.86028 -4.69867,0.19362 -4.69867,0.19362 -10.31032,-17.79995 -3.08641,-9.89647 -5.80909,-17.7836 -6.0504,-17.52695 -0.24131,0.25664 -2.83053,8.26662 -5.75382,17.79995 -5.14265,16.77101 -12.51983,24.86497 -15.06441,16.52812 z m 65.59031,-24.86145 c 0,-26 0,-26 5.66666,-26 5.66667,0 5.66667,0 5.66667,26 0,26 0,26 -5.66667,26 -5.66666,0 -5.66666,0 -5.66666,-26 z m 24.66666,0 c 0,-26 0,-26 5.33334,-26 5.33333,0 5.33333,0 5.33333,2.66666 0,3.13569 0.15641,3.19659 2.5291,0.98473 6.28314,-5.85723 17.91485,-6.48981 23.97357,-1.30378 8.44323,7.2271 8.33517,49.65239 -0.12647,49.65239 -5.70953,0 -5.70953,0 -5.70953,-18.73258 0,-23.56458 -0.64925,-25.26742 -9.63386,-25.26742 -9.68338,0 -11.03281,3.10136 -11.03281,25.35653 0,18.64347 0,18.64347 -5.33333,18.64347 -5.33334,0 -5.33334,0 -5.33334,-26 z m 55.33334,-11.33334 c 0,-37.33333 0,-37.33333 5.66667,-37.33333 5.66666,0 5.66666,0 5.68773,21.83333 0.0211,21.83334 0.0211,21.83334 1.73115,19.83334 16.48152,-19.27571 16.08028,-18.9515 23.48508,-18.9766 6.90397,-0.0234 6.90397,-0.0234 2,5.40743 -16.59913,18.38249 -16.05458,13.61878 -3.57063,31.23583 5.68333,8.02019 10.33333,14.75117 10.33333,14.95775 0,6.33682 -13.46098,-0.87331 -20.44566,-10.95135 -9.8525,-14.21595 -13.55434,-13.4515 -13.55434,2.79907 0,8.52787 0,8.52787 -5.66666,8.52787 -5.66667,0 -5.66667,0 -5.66667,-37.33334 z m 62.89557,35.99085 c -20.1973,-10.21804 -8.59263,-43.38464 15.57875,-44.52467 11.44116,-0.53962 18.97183,7.19024 12.9103,13.25177 -4.8299,4.82989 -10.71795,2.0549 -10.71795,-5.05128 0,-13.06698 -13.43196,1.61531 -15.38095,16.8127 -2.54866,19.87336 7.67808,23.35712 24.51821,8.3522 7.76954,-6.92282 9.61284,-7.19504 5.51879,-0.81503 -7.19351,11.21012 -22.6534,16.91896 -32.42715,11.97431 z"
       id="path2" />
    <path
       id="path3"
       style="fill:#0000ca;stroke-width:0.986824"
       d="m -293.24552,791.77428 c -0.23301,2.35925 -2.53985,4.04014 -5.61719,3.42018 -2.74567,-0.55315 -4.75077,-2.58038 -4.42024,-4.8695 0.33055,-2.28913 2.84544,-3.82038 5.61719,-3.42017 2.77176,0.40022 4.64755,2.56802 4.42024,4.86949 z" />
  </g>
</svg>
