<?xml version="1.0" ?>

<!-- Uploaded to: SVG Repo, www.svgrepo.com, Generator: SVG Repo Mixer Tools -->
<svg fill="#000000" width="800px" height="800px" viewBox="0 0 512 512" version="1.1" xml:space="preserve" xmlns="http://www.w3.org/2000/svg" xmlns:xlink="http://www.w3.org/1999/xlink">

<g id="love_gesture-hand-heart-love-valentine">

<path d="M230.32,105.666c-7.017-7.196-8.387-18.749-2.104-26.593c7.145-8.922,20.021-9.403,27.784-1.442   c7.763-7.96,20.64-7.479,27.784,1.442c6.283,7.845,4.913,19.397-2.104,26.593l-19.952,20.46c-3.14,3.22-8.315,3.22-11.455,0   L230.32,105.666z M436.88,313.44l-24.16-50.8l-40.24-84.48c-2.48-5.2-6.32-9.68-11.12-12.88l-21.04-14   c-7.52-5.04-17.28-5.36-25.2-0.88l-44.64,25.44c-4.08,2.08-6.88,5.6-8.16,9.68l2.16,2.16c5.04,5.04,12.88,6.16,19.12,2.64   l21.68-12.08c5.92-3.28,12.64-5.04,19.44-5.04c9.84,0,19.28,3.6,26.64,10.16l53.092,68.597L340.72,195.28   c-7.6-6.72-18.72-8-27.6-3.04l-40.64,22.64C262.32,220.48,256,231.2,256,242.8c0-11.6-6.32-22.32-16.48-27.92l-40.64-22.64   c-8.88-4.96-20-3.68-27.6,3.04l-63.731,56.677l53.092-68.597c7.36-6.56,16.8-10.16,26.64-10.16c6.8,0,13.52,1.76,19.44,5.04   l21.68,12.08c6.645,3.748,13.659,2.821,21.28-4.8c-1.28-4.08-4.08-7.6-8.16-9.68l-44.64-25.44c-7.92-4.48-17.68-4.16-25.2,0.88   l-21.04,14c-4.8,3.2-8.64,7.68-11.12,12.88l-40.24,84.48l-24.16,50.8c-2.08,4.32-3.12,9.04-3.12,13.76V408h88v-8   c-8,0-15.44-1.76-22-5.12l-10.88-5.44c-7.84-3.92-11.04-13.52-7.12-21.44l25.28,12.64c4.4,2.24,9.28,3.36,14.24,3.36h46.16   c1.52,0,2.96,0.48,4.24,1.28l11.2,7.44c6.32,4.24,14.8,3.36,20.16-2l3.44-3.44c6.24-6.24,6.24-16.32,0-22.56l-16.4-16.4   c-2.88-2.88-6.24-5.12-10-6.72l-45.44-19.52c-2.96-1.28-4.88-4.16-4.88-7.44v-47.36c0-2.08,0.8-4.08,2.32-5.6l18.16-18.16   c2.08-2.08,5.28-2.88,8.16-1.92l13.92,4.56c3.2,1.12,5.44,4.16,5.44,7.6V256c0,8.8,7.2,16,16,16h8c8.8,0,16-7.2,16-16   c0,8.8,7.2,16,16,16h8c8.8,0,16-7.2,16-16v-2.24c0-3.44,2.24-6.48,5.44-7.6l13.92-4.56c2.88-0.96,6.08-0.16,8.16,1.92l18.16,18.16   c1.52,1.52,2.32,3.52,2.32,5.6v47.36c0,3.28-1.92,6.16-4.88,7.44l-45.44,19.52c-3.76,1.6-7.12,3.84-10,6.72l-16.4,16.4   c-6.24,6.24-6.24,16.32,0,22.56l3.44,3.44c5.36,5.36,13.84,6.24,20.16,2l11.2-7.44c1.28-0.8,2.72-1.28,4.24-1.28h46.16   c4.96,0,9.84-1.12,14.24-3.36L392,368c3.92,7.92,0.72,17.52-7.12,21.44L374,394.88c-6.56,3.36-14,5.12-22,5.12v8h88v-80.8   C440,322.48,438.96,317.76,436.88,313.44z M368,440h56c8.836,0,16-7.164,16-16h-88C352,432.836,359.164,440,368,440z M88,440h56   c8.836,0,16-7.164,16-16H72C72,432.836,79.164,440,88,440z"/>

</g>

<g id="Layer_1"/>

</svg>