<?xml version="1.0" encoding="UTF-8"?>
<svg id="love" width="64" height="64" version="1.1" xmlns="http://www.w3.org/2000/svg">
 <path d="M19.154 7.404c-3.87 0-7.741 1.492-10.707 4.469a15.2 15.2 0 0 0 0 21.488l2.14 2.149 21.412 21.493L53.411 35.51l2.14-2.15a15.2 15.2 0 0 0 0-21.487 15.072 15.072 0 0 0-7.364-4.08l-2.092 1.84 3.442 5.962-5.02 3.699 2.267 5.643-8.472 5.291 2.83-6.803-2.501-5.71 3.608-4.07-2.98-5.167a15.16 15.16 0 0 0-5.13 3.395l-2.14 2.148-2.14-2.148a15.068 15.068 0 0 0-10.705-4.47z" fill-rule="evenodd"/>
 <path d="m19.154 7.404c-3.87 0-7.741 1.487-10.707 4.464a15.265 15.265 0 0 0-1.602 1.93 13.753 13.753 0 0 1 19.544 0l2.89 2.914 1.95-1.968c0.25-0.252 0.515-0.48 0.78-0.708l-2.15-2.168a15.062 15.062 0 0 0-10.705-4.464zm29.033 0.39-2.092 1.84 1.293 2.239c0.865 0.545 1.698 1.167 2.453 1.925a13.875 13.875 0 0 1 0 19.615l-1.954 1.964-18.717 18.788 2.83 2.838 21.41-21.493 2.14-2.15a15.205 15.205 0 0 0 0-21.492 15.059 15.059 0 0 0-7.364-4.075zm-8.89 0.732c-1.192 0.478-2.35 1.07-3.419 1.863a13.753 13.753 0 0 1 4.127-0.632z" fill-rule="evenodd"/>
</svg>
