<?xml version="1.0" encoding="UTF-8"?>
<!-- Uploaded to: SVG Repo, www.svgrepo.com, Generator: SVG Repo Mixer Tools -->
<svg width="64" height="64" fill="#000000" version="1.1" viewBox="0 0 28.039 28.039" xml:space="preserve" xmlns="http://www.w3.org/2000/svg">
<g transform="matrix(.069072 0 0 .069072 1.915 1.915)">
	<g id="Artwork_18_">
		<g id="Layer_5_18_">
			<path d="m168.08 99.115c3.141 0 17.629-12.171 20.995-17.289 1.678-2.551 2.861-5.344 2.665-9.028-0.35-6.522-5.683-11.909-12.213-11.909-6.426 0-10.503 7.164-11.467 7.164-0.844 0-4.755-7.164-11.469-7.164-6.531 0-11.864 5.386-12.213 11.909-0.197 3.684 0.99 6.488 2.665 9.028 3.342 5.075 17.963 17.289 21.037 17.289z"/>
			<path d="m226.75 114.58c-0.249 4.65 1.251 8.19 3.364 11.395 4.22 6.405 22.675 21.824 26.557 21.824 3.964 0 22.252-15.363 26.501-21.824 2.118-3.22 3.613-6.745 3.363-11.395-0.44-8.233-7.172-15.032-15.417-15.032-8.111 0-13.258 9.043-14.475 9.043-1.066 0-6.001-9.043-14.478-9.043-8.243 0-14.975 6.799-15.415 15.032z"/>
			<path d="m231.27 47.262c2.539 0 14.25-9.838 16.972-13.976 1.356-2.063 2.314-4.319 2.153-7.297-0.282-5.273-4.594-9.626-9.872-9.626-5.195 0-8.491 5.791-9.271 5.791-0.682 0-3.843-5.791-9.271-5.791-5.28 0-9.591 4.353-9.872 9.626-0.159 2.978 0.801 5.245 2.153 7.297 2.704 4.102 14.523 13.976 17.008 13.976z"/>
			<path d="m348.39 205.5c-7.071-25.273-32.691-41.736-58.307-36.026-25.201 5.617-34.928 37.276-38.71 38.12-3.309 0.738-24.905-23.939-51.238-18.07-25.613 5.709-41.818 31.495-37.485 57.378 2.448 14.621 9.556 24.578 18.341 33.076 17.547 16.975 85.562 52.097 97.618 49.41 12.316-2.745 58.499-63.14 67.223-86.152 4.35-11.474 6.551-23.459 2.558-37.736z"/>
			<path d="m169.17 292.2c-8.285-8.016-19.713-21.139-23.288-42.486-2.811-16.796 0.739-33.941 9.998-48.283 9.461-14.655 23.865-24.775 40.556-28.496 3.902-0.87 7.916-1.311 11.931-1.311 15.489 0 27.628 6.055 36.922 11.971 0.708 0.438 1.166 6e-3 1.028-0.268-9.016-17.977-24.104-32.238-44.826-36.857-35.291-7.865-64.233 25.206-68.668 24.218-5.068-1.129-18.104-43.559-51.877-51.087-34.328-7.651-68.664 14.41-78.14 48.28-5.353 19.133-2.401 35.196 3.428 50.571 11.692 30.841 73.583 111.78 90.09 115.46 10.145 2.261 47.232-13.968 81.073-33.023 0.812-0.555 0.719-1.242 0.186-1.635-3.423-2.516-5.908-4.629-8.413-7.053z"/>
		</g>
	</g>
</g>
</svg>
