<?xml version="1.0" encoding="UTF-8" standalone="no"?>
<!-- Uploaded to: SVG Repo, www.svgrepo.com, Generator: SVG Repo Mixer Tools -->

<svg
   width="800px"
   height="800px"
   viewBox="0 0 24 24"
   fill="none"
   version="1.1"
   id="svg4"
   xmlns="http://www.w3.org/2000/svg">
  <defs
     id="defs4" />
  <path
     d="M 11.08,22 C 9.1944,22 8.2516,22 7.6658,21.4142 7.08,20.8284 7.08,19.8856 7.08,18 V 6 c 0,-1.88562 0,-2.82843 0.5858,-3.41421 C 8.2516,2 9.1944,2 11.08,2 h 2 c 1.8856,0 2.8284,0 3.4142,0.58579 C 17.08,3.17157 17.08,4.11438 17.08,6 v 12 c 0,1.8856 0,2.8284 -0.5858,3.4142 C 15.9084,22 14.9656,22 13.08,22 Z"
     stroke="#1c274c"
     stroke-width="1.5"
     id="path1" />
  <path
     opacity="0.5"
     d="m 7.08,12 h 2 m -2,-6 h 2 m -2,12 h 2 m -2,-3 h 3 m -3,-6 h 3"
     stroke="#1c274c"
     stroke-width="1.5"
     stroke-linecap="round"
     id="path2" />
</svg>
