<?xml version="1.0" ?>
<!-- Uploaded to: SVG Repo, www.svgrepo.com, Generator: SVG Repo Mixer Tools -->
<svg fill="#000000" width="800px" height="800px" viewBox="0 0 64 64" xmlns="http://www.w3.org/2000/svg">
<g data-name="Layer 15" id="Layer_15">
<path d="M32,61A29,29,0,1,1,61,32,29,29,0,0,1,32,61ZM32,5A27,27,0,1,0,59,32,27,27,0,0,0,32,5ZM48.75,42.67a1,1,0,0,0-.08-1.42l-.53-.47C45.34,38.25,40.65,34,32,34s-13.34,4.25-16.14,6.78l-.53.47a1,1,0,1,0,1.34,1.5l.53-.49C19.79,39.92,24.12,36,32,36s12.21,3.92,14.8,6.26l.53.49A1,1,0,0,0,48,43,1,1,0,0,0,48.75,42.67ZM48,22a1,1,0,0,0-2,0,4,4,0,0,1-8,0,1,1,0,0,0-2,0,6,6,0,0,0,12,0ZM28,22a1,1,0,0,0-2,0,4,4,0,0,1-8,0,1,1,0,0,0-2,0,6,6,0,0,0,12,0Z"/>
</g>
</svg>